#Comment line ignore any data following # character 
#Hierarchical Translation and Rotation (.htr) file 
[Header]	
#Header keywords are followed by a single value 
FileType HTR		#Single word string
DataType HTRS		#Translation followed by rotation and scale data
FileVersion 1		#integer
NumSegments 84		#integer
NumFrames 2		#integer
DataFrameRate 30		#integer, data frame rate in this file
EulerRotationOrder ZYX
CalibrationUnits mm
RotationUnits Degrees
GlobalAxisofGravity Y
BoneLengthAxis Y
ScaleFactor 1.00
[SegmentNames&Hierarchy]
#CHILD	PARENT
MASTER GLOBAL
root MASTER
chest root
L_mid_tent01 root
R_mid_tent01 root
spine01 root
Bip01_Neck chest
L_humerus chest
R_humerus chest
weapon_bone chest
Bip01_Head Bip01_Neck
eye_left_bone Bip01_Head
eye_right_bone Bip01_Head
L_forearm L_humerus
L_front_hand L_forearm
L_weapon_bone L_forearm
L_front_hand01_01 L_front_hand
L_front_hand02_01 L_front_hand
L_front_hand03_01 L_front_hand
L_front_hand01_02 L_front_hand01_01
L_front_hand02_02 L_front_hand02_01
L_front_hand03_02 L_front_hand03_01
R_forearm R_humerus
R_front_hand R_forearm
R_weapon_bone R_forearm
R_front_hand01_01 R_front_hand
R_front_hand02_01 R_front_hand
R_front_hand03_01 R_front_hand
R_front_hand01_02 R_front_hand01_01
R_front_hand02_02 R_front_hand02_01
R_front_hand03_02 R_front_hand03_01
null_rope01_connect L_mid_tent01
Rope1_Seg01 null_rope01_connect
Rope1_Seg02 Rope1_Seg01
Rope1_Seg03 Rope1_Seg02
Rope1_Seg04 Rope1_Seg03
Rope1_Seg05 Rope1_Seg04
Rope1_Seg06 Rope1_Seg05
Rope1_Seg07 Rope1_Seg06
Rope1_Seg09 Rope1_Seg07
L_mid_hand01 Rope1_Seg09
L_mid_hand02 Rope1_Seg09
L_mid_hand03 Rope1_Seg09
null_rope02_connect R_mid_tent01
Rope2_Seg01 null_rope02_connect
Rope2_Seg02 Rope2_Seg01
Rope2_Seg03 Rope2_Seg02
Rope2_Seg04 Rope2_Seg03
Rope2_Seg05 Rope2_Seg04
Rope2_Seg06 Rope2_Seg05
Rope2_Seg07 Rope2_Seg06
Rope2_Seg09 Rope2_Seg07
R_mid_hand01 Rope2_Seg09
R_mid_hand02 Rope2_Seg09
R_mid_hand03 Rope2_Seg09
spine02 spine01
spine03 spine02
pelvis spine03
null_rope03_connect pelvis
null_rope04_connect pelvis
Rope3_Seg01 null_rope03_connect
Rope3_Seg02 Rope3_Seg01
Rope3_Seg03 Rope3_Seg02
Rope3_Seg04 Rope3_Seg03
Rope3_Seg05 Rope3_Seg04
Rope3_Seg06 Rope3_Seg05
Rope3_Seg07 Rope3_Seg06
Rope3_Seg08 Rope3_Seg07
Rope3_Seg09 Rope3_Seg08
R_rear_hand01 Rope3_Seg09
R_rear_hand02 Rope3_Seg09
R_rear_hand03 Rope3_Seg09
Rope4_Seg01 null_rope04_connect
Rope4_Seg02 Rope4_Seg01
Rope4_Seg03 Rope4_Seg02
Rope4_Seg04 Rope4_Seg03
Rope4_Seg05 Rope4_Seg04
Rope4_Seg06 Rope4_Seg05
Rope4_Seg07 Rope4_Seg06
Rope4_Seg08 Rope4_Seg07
Rope4_Seg09 Rope4_Seg08
L_rear_hand01 Rope4_Seg09
L_rear_hand02 Rope4_Seg09
L_rear_hand03 Rope4_Seg09
[BasePosition]
#SegmentName Tx, Ty, Tz, Rx, Ry, Rz, BoneLength
MASTER 0.000000 0.000000 0.000000 -90.000000 0.000000 0.000000 10.000000 
root 0.000000 0.000000 0.000000 0.000000 0.000000 0.000000 10.000000 
chest 0.000000 0.000000 0.000000 0.000000 0.000000 0.000000 10.000000 
L_mid_tent01 0.000000 0.000000 0.000000 0.000000 0.000000 0.000000 10.000000 
R_mid_tent01 0.000000 0.000000 0.000000 0.000000 0.000000 0.000000 10.000000 
spine01 0.000000 0.000000 0.000000 0.000000 0.000000 0.000000 10.000000 
Bip01_Neck 0.000000 0.000000 0.000000 0.000000 0.000000 0.000000 10.000000 
L_humerus 0.000000 0.000000 0.000000 0.000000 0.000000 0.000000 10.000000 
R_humerus 0.000000 0.000000 0.000000 0.000000 0.000000 0.000000 10.000000 
weapon_bone 0.000000 0.000000 0.000000 0.000000 0.000000 0.000000 10.000000 
Bip01_Head 0.000000 0.000000 0.000000 0.000000 0.000000 0.000000 10.000000 
eye_left_bone 0.000000 0.000000 0.000000 0.000000 0.000000 0.000000 10.000000 
eye_right_bone 0.000000 0.000000 0.000000 0.000000 0.000000 0.000000 10.000000 
L_forearm 0.000000 0.000000 0.000000 0.000000 0.000000 0.000000 10.000000 
L_front_hand 0.000000 0.000000 0.000000 0.000000 0.000000 0.000000 10.000000 
L_weapon_bone 0.000000 0.000000 0.000000 0.000000 0.000000 0.000000 10.000000 
L_front_hand01_01 0.000000 0.000000 0.000000 0.000000 0.000000 0.000000 10.000000 
L_front_hand02_01 0.000000 0.000000 0.000000 0.000000 0.000000 0.000000 10.000000 
L_front_hand03_01 0.000000 0.000000 0.000000 0.000000 0.000000 0.000000 10.000000 
L_front_hand01_02 0.000000 0.000000 0.000000 0.000000 0.000000 0.000000 10.000000 
L_front_hand02_02 0.000000 0.000000 0.000000 0.000000 0.000000 0.000000 10.000000 
L_front_hand03_02 0.000000 0.000000 0.000000 0.000000 0.000000 0.000000 10.000000 
R_forearm 0.000000 0.000000 0.000000 0.000000 0.000000 0.000000 10.000000 
R_front_hand 0.000000 0.000000 0.000000 0.000000 0.000000 0.000000 10.000000 
R_weapon_bone 0.000000 0.000000 0.000000 0.000000 0.000000 0.000000 10.000000 
R_front_hand01_01 0.000000 0.000000 0.000000 0.000000 0.000000 0.000000 10.000000 
R_front_hand02_01 0.000000 0.000000 0.000000 0.000000 0.000000 0.000000 10.000000 
R_front_hand03_01 0.000000 0.000000 0.000000 0.000000 0.000000 0.000000 10.000000 
R_front_hand01_02 0.000000 0.000000 0.000000 0.000000 0.000000 0.000000 10.000000 
R_front_hand02_02 0.000000 0.000000 0.000000 0.000000 0.000000 0.000000 10.000000 
R_front_hand03_02 0.000000 0.000000 0.000000 0.000000 0.000000 0.000000 10.000000 
null_rope01_connect 0.000000 0.000000 0.000000 0.000000 0.000000 0.000000 10.000000 
Rope1_Seg01 0.000000 0.000000 0.000000 0.000000 0.000000 0.000000 10.000000 
Rope1_Seg02 0.000000 0.000000 0.000000 0.000000 0.000000 0.000000 10.000000 
Rope1_Seg03 0.000000 0.000000 0.000000 0.000000 0.000000 0.000000 10.000000 
Rope1_Seg04 0.000000 0.000000 0.000000 0.000000 0.000000 0.000000 10.000000 
Rope1_Seg05 0.000000 0.000000 0.000000 0.000000 0.000000 0.000000 10.000000 
Rope1_Seg06 0.000000 0.000000 0.000000 0.000000 0.000000 0.000000 10.000000 
Rope1_Seg07 0.000000 0.000000 0.000000 0.000000 0.000000 0.000000 10.000000 
Rope1_Seg09 0.000000 0.000000 0.000000 0.000000 0.000000 0.000000 10.000000 
L_mid_hand01 0.000000 0.000000 0.000000 0.000000 0.000000 0.000000 10.000000 
L_mid_hand02 0.000000 0.000000 0.000000 0.000000 0.000000 0.000000 10.000000 
L_mid_hand03 0.000000 0.000000 0.000000 0.000000 0.000000 0.000000 10.000000 
null_rope02_connect 0.000000 0.000000 0.000000 0.000000 0.000000 0.000000 10.000000 
Rope2_Seg01 0.000000 0.000000 0.000000 0.000000 0.000000 0.000000 10.000000 
Rope2_Seg02 0.000000 0.000000 0.000000 0.000000 0.000000 0.000000 10.000000 
Rope2_Seg03 0.000000 0.000000 0.000000 0.000000 0.000000 0.000000 10.000000 
Rope2_Seg04 0.000000 0.000000 0.000000 0.000000 0.000000 0.000000 10.000000 
Rope2_Seg05 0.000000 0.000000 0.000000 0.000000 0.000000 0.000000 10.000000 
Rope2_Seg06 0.000000 0.000000 0.000000 0.000000 0.000000 0.000000 10.000000 
Rope2_Seg07 0.000000 0.000000 0.000000 0.000000 0.000000 0.000000 10.000000 
Rope2_Seg09 0.000000 0.000000 0.000000 0.000000 0.000000 0.000000 10.000000 
R_mid_hand01 0.000000 0.000000 0.000000 0.000000 0.000000 0.000000 10.000000 
R_mid_hand02 0.000000 0.000000 0.000000 0.000000 0.000000 0.000000 10.000000 
R_mid_hand03 0.000000 0.000000 0.000000 0.000000 0.000000 0.000000 10.000000 
spine02 0.000000 0.000000 0.000000 0.000000 0.000000 0.000000 10.000000 
spine03 0.000000 0.000000 0.000000 0.000000 0.000000 0.000000 10.000000 
pelvis 0.000000 0.000000 0.000000 0.000000 0.000000 0.000000 10.000000 
null_rope03_connect 0.000000 0.000000 0.000000 0.000000 0.000000 0.000000 10.000000 
null_rope04_connect 0.000000 0.000000 0.000000 0.000000 0.000000 0.000000 10.000000 
Rope3_Seg01 0.000000 0.000000 0.000000 0.000000 0.000000 0.000000 10.000000 
Rope3_Seg02 0.000000 0.000000 0.000000 0.000000 0.000000 0.000000 10.000000 
Rope3_Seg03 0.000000 0.000000 0.000000 0.000000 0.000000 0.000000 10.000000 
Rope3_Seg04 0.000000 0.000000 0.000000 0.000000 0.000000 0.000000 10.000000 
Rope3_Seg05 0.000000 0.000000 0.000000 0.000000 0.000000 0.000000 10.000000 
Rope3_Seg06 0.000000 0.000000 0.000000 0.000000 0.000000 0.000000 10.000000 
Rope3_Seg07 0.000000 0.000000 0.000000 0.000000 0.000000 0.000000 10.000000 
Rope3_Seg08 0.000000 0.000000 0.000000 0.000000 0.000000 0.000000 10.000000 
Rope3_Seg09 0.000000 0.000000 0.000000 0.000000 0.000000 0.000000 10.000000 
R_rear_hand01 0.000000 0.000000 0.000000 0.000000 0.000000 0.000000 10.000000 
R_rear_hand02 0.000000 0.000000 0.000000 0.000000 0.000000 0.000000 10.000000 
R_rear_hand03 0.000000 0.000000 0.000000 0.000000 0.000000 0.000000 10.000000 
Rope4_Seg01 0.000000 0.000000 0.000000 0.000000 0.000000 0.000000 10.000000 
Rope4_Seg02 0.000000 0.000000 0.000000 0.000000 0.000000 0.000000 10.000000 
Rope4_Seg03 0.000000 0.000000 0.000000 0.000000 0.000000 0.000000 10.000000 
Rope4_Seg04 0.000000 0.000000 0.000000 0.000000 0.000000 0.000000 10.000000 
Rope4_Seg05 0.000000 0.000000 0.000000 0.000000 0.000000 0.000000 10.000000 
Rope4_Seg06 0.000000 0.000000 0.000000 0.000000 0.000000 0.000000 10.000000 
Rope4_Seg07 0.000000 0.000000 0.000000 0.000000 0.000000 0.000000 10.000000 
Rope4_Seg08 0.000000 0.000000 0.000000 0.000000 0.000000 0.000000 10.000000 
Rope4_Seg09 0.000000 0.000000 0.000000 0.000000 0.000000 0.000000 10.000000 
L_rear_hand01 0.000000 0.000000 0.000000 0.000000 0.000000 0.000000 10.000000 
L_rear_hand02 0.000000 0.000000 0.000000 0.000000 0.000000 0.000000 10.000000 
L_rear_hand03 0.000000 0.000000 0.000000 0.000000 0.000000 0.000000 10.000000 
#Beginning of Data. Separated by tabs
#Fr	Tx	Ty	Tz	Rx	Ry	Rz	SF
[MASTER]
6 101.598404 1055.915771 910.818176 0.001660 0.001660 0.001660 1398.166748
7 136.262604 1248.885132 1105.082031 0.001660 0.001660 0.001660 1673.166992
[root]
6 23.469866 -78.814835 1308.661743 -78.525772 2.565602 -98.741425 1311.242920
7 67.247902 -32.547531 1272.643677 -68.829391 7.240249 -102.024590 1274.834717
[chest]
6 -84.512650 -34.090519 0.000000 1.317354 -11.877005 -173.840103 91.129311
7 -84.512650 -34.090519 0.000000 6.593607 -12.441401 -174.124847 91.129311
[L_mid_tent01]
6 27.299124 22.179277 -249.918671 -0.478570 12.791245 69.451340 252.381668
7 27.299131 22.179281 -249.918671 -1.189963 17.078775 68.416061 252.381668
[R_mid_tent01]
6 23.228794 24.509907 226.238495 169.680267 -23.333866 66.515968 228.744751
7 23.228794 24.509907 226.238495 171.441574 -25.223787 62.099098 228.744751
[spine01]
6 -0.361383 -0.195265 0.000000 -0.000001 -0.000007 22.052340 0.410763
7 -0.361383 -0.195265 0.000000 -0.000001 -0.000007 22.052340 0.410763
[Bip01_Neck]
6 165.484543 71.581718 0.000119 176.643677 -1.657967 43.431911 180.302734
7 165.484543 71.581718 0.000119 176.643677 -1.657967 43.431911 180.302734
[L_humerus]
6 -13.983130 -135.272980 -120.471481 3.476961 75.671188 93.668304 181.680161
7 -13.983130 -135.272980 -120.471481 9.323203 78.428818 99.597794 181.680161
[R_humerus]
6 -13.983309 -135.273102 125.287651 87.896019 -86.332214 7.454381 184.909012
7 -13.983309 -135.273102 125.287651 160.841980 -84.191071 -65.576988 184.909012
[weapon_bone]
6 235.964890 -300.705902 0.000000 0.000000 -89.951546 -128.212341 382.234833
7 235.964890 -300.705902 0.000000 0.000000 -89.951546 -128.212341 382.234833
[Bip01_Head]
6 213.553391 185.411865 15.697188 13.131672 2.886093 -43.870060 283.247253
7 213.636154 185.181198 18.674278 14.734979 0.900589 -43.883278 283.339386
[eye_left_bone]
6 -24.626970 125.451866 -64.772606 0.000000 -90.000000 -99.840431 143.318359
7 -24.626970 125.451866 -64.772606 0.000000 -90.000000 -99.840431 143.318359
[eye_right_bone]
6 -24.626970 125.451866 64.327362 0.000000 -89.965736 80.156380 143.117676
7 -24.626970 125.451866 64.327362 0.000000 -89.980217 80.156380 143.117676
[L_forearm]
6 322.776093 0.000000 -0.000119 0.000410 -0.002311 -110.095093 322.776093
7 322.776093 0.000000 -0.000119 0.000412 -0.002311 -110.217827 322.776093
[L_front_hand]
6 241.149185 -0.042021 -3.300071 -178.667953 -1.835447 -27.422350 241.171753
7 241.149185 -0.042021 -3.300071 -178.667953 -1.835447 -27.422350 241.171753
[L_weapon_bone]
6 156.183838 0.000000 0.000000 0.000014 0.000007 0.000001 156.183838
7 156.183838 0.000000 0.000000 0.000014 0.000007 0.000001 156.183838
[L_front_hand01_01]
6 86.095154 20.947098 -0.655860 -0.340755 -0.496208 72.096481 88.609184
7 86.095154 20.947098 -0.655860 -0.322964 -0.505554 70.186295 88.609184
[L_front_hand02_01]
6 86.935165 -11.437475 24.513514 149.544266 -58.335350 -55.710854 91.046425
7 86.935165 -11.437475 24.513514 146.960190 -57.330456 -52.657890 91.046425
[L_front_hand03_01]
6 86.637497 -14.123976 -20.424902 -149.397461 56.551064 -57.336918 90.126129
7 86.637497 -14.123976 -20.424902 -146.989075 55.546074 -54.434807 90.126129
[L_front_hand01_02]
6 71.020905 -0.000179 0.000030 0.000316 -0.002326 -105.493759 71.020905
7 71.020905 -0.000179 0.000030 0.000316 -0.002326 -105.473587 71.020905
[L_front_hand02_02]
6 71.020927 -0.000119 0.000060 0.000316 -0.002326 -105.493759 71.020927
7 71.020927 -0.000119 0.000060 0.000316 -0.002326 -105.473587 71.020927
[L_front_hand03_02]
6 71.020905 -0.000060 0.000060 0.000316 -0.002326 -105.493759 71.020905
7 71.020905 -0.000060 0.000060 0.000316 -0.002326 -105.473587 71.020905
[R_forearm]
6 322.776428 -0.000060 0.000030 0.201712 0.066357 -108.743629 322.776428
7 322.776428 -0.000060 0.000030 0.201640 0.066575 -108.867393 322.776428
[R_front_hand]
6 238.847015 -0.006795 2.210259 -2.635298 -10.645461 -26.312506 238.857239
7 238.847015 -0.006795 2.210259 -2.635298 -10.645461 -26.312506 238.857239
[R_weapon_bone]
6 155.664093 0.002503 -0.000030 0.003487 0.001180 -90.988930 155.664078
7 155.664093 0.002503 -0.000030 0.003487 0.001180 -90.988930 155.664078
[R_front_hand01_01]
6 87.624611 14.231146 22.918642 -149.707169 -58.394505 56.007458 91.683487
7 87.624611 14.231146 22.918642 -146.976166 -57.336147 52.779388 91.683487
[R_front_hand02_01]
6 89.356956 14.367283 -19.491137 149.983444 56.758789 58.275921 92.579636
7 89.356956 14.367283 -19.491137 147.400665 55.711205 55.166904 92.579636
[R_front_hand03_01]
6 87.286232 -22.307278 -0.143439 0.134949 -0.432464 -72.452232 90.091743
7 87.286232 -22.307278 -0.143439 0.123256 -0.437630 -70.429710 90.091743
[R_front_hand01_02]
6 71.020905 0.000060 0.000119 0.002323 -0.000334 106.381714 71.020905
7 71.020905 0.000060 0.000119 0.002323 -0.000334 106.381714 71.020905
[R_front_hand02_02]
6 71.020844 -0.000030 -0.000119 0.002323 -0.000334 106.381714 71.020836
7 71.020844 -0.000030 -0.000119 0.002323 -0.000334 106.381714 71.020836
[R_front_hand03_02]
6 71.020905 0.000000 0.000030 0.002323 -0.000334 106.381714 71.020905
7 71.020905 0.000000 0.000030 0.002323 -0.000334 106.381714 71.020905
[null_rope01_connect]
6 328.732483 0.000000 -0.000238 -93.916260 -77.253860 111.375153 328.732483
7 328.732483 0.000000 -0.000238 -76.698334 -71.854744 90.353371 328.732483
[Rope1_Seg01]
6 0.000038 -0.000109 0.000153 -4.523862 33.731110 -179.956848 0.000192
7 0.000038 -0.000124 0.000153 -31.204075 50.831020 142.294159 0.000200
[Rope1_Seg02]
6 139.999863 -0.000179 0.000000 -2.590798 14.826411 -21.015615 139.999863
7 139.999863 -0.000179 0.000000 0.859921 10.056053 -16.358252 139.999863
[Rope1_Seg03]
6 139.999924 0.000060 -0.000060 1.684561 14.135868 -27.306057 139.999924
7 139.999924 0.000060 -0.000060 7.970075 8.701507 -18.638178 139.999924
[Rope1_Seg04]
6 139.999924 -0.000060 -0.000119 3.279726 15.152382 -21.222960 139.999924
7 139.999924 -0.000060 -0.000119 23.846056 2.089594 -14.278772 139.999924
[Rope1_Seg05]
6 139.999832 0.000119 -0.000060 -165.884430 18.594040 -18.269497 139.999832
7 139.999832 0.000119 -0.000060 75.482689 4.866259 -17.467083 139.999832
[Rope1_Seg06]
6 139.999954 0.000119 -0.000060 -8.074924 -5.128894 9.585069 139.999954
7 139.999954 0.000119 -0.000060 66.421783 -14.667119 -12.421487 139.999954
[Rope1_Seg07]
6 139.999985 0.000060 0.000000 -1.775709 -2.808644 4.241839 139.999985
7 139.999985 0.000060 0.000000 5.065158 -7.926918 4.495208 139.999985
[Rope1_Seg09]
6 121.602913 0.000119 -0.000089 -89.793175 -1.359789 0.847147 121.602913
7 121.602913 0.000119 -0.000089 -89.793175 -1.359789 0.847147 121.602913
[L_mid_hand01]
6 103.859421 1.038730 8.195221 115.405022 -54.702576 -21.718946 104.187431
7 103.859421 1.038730 8.195221 112.987701 -50.601227 -18.681456 104.187431
[L_mid_hand02]
6 105.572853 -4.139662 -10.864139 -156.173538 38.796768 -54.226353 106.211075
7 105.572853 -4.139662 -10.864139 -153.018723 36.866009 -49.082401 106.211075
[L_mid_hand03]
6 104.641464 17.579376 -3.913581 -10.557028 15.605442 59.191399 106.179977
7 104.641464 17.579376 -3.913581 -11.755013 14.733717 54.618225 106.179977
[null_rope02_connect]
6 328.732849 0.000179 -0.000119 -160.346420 59.786594 -7.608361 328.732849
7 328.732849 0.000179 -0.000119 -171.731201 49.550716 -22.559288 328.732849
[Rope2_Seg01]
6 0.000093 0.000034 0.000000 61.144119 -2.853054 -29.895885 0.000099
7 0.000093 0.000018 0.000000 81.020454 -5.784803 -20.509008 0.000094
[Rope2_Seg02]
6 139.999741 -0.000060 -0.000119 -3.772881 26.766481 -13.694650 139.999756
7 139.999741 -0.000060 -0.000119 -9.993519 20.727367 -17.701052 139.999756
[Rope2_Seg03]
6 140.000107 0.000030 0.000000 -6.390269 29.332945 -19.053663 140.000107
7 140.000107 0.000030 0.000000 -6.264665 16.419333 -16.812431 140.000107
[Rope2_Seg04]
6 139.999802 0.000000 -0.000060 -1.899445 24.464468 -5.959417 139.999802
7 139.999802 0.000000 -0.000060 -0.537044 20.041464 -5.207666 139.999802
[Rope2_Seg05]
6 139.999985 -0.000060 0.000119 -8.075728 27.868080 -0.860927 139.999985
7 139.999985 -0.000060 0.000119 -4.179358 29.362164 1.336482 139.999985
[Rope2_Seg06]
6 139.999893 -0.000030 -0.000119 -8.016338 13.165944 0.597238 139.999893
7 139.999893 -0.000030 -0.000119 -5.289252 14.207314 0.953616 139.999893
[Rope2_Seg07]
6 139.999893 0.000060 -0.000060 -6.918595 6.835481 1.260736 139.999893
7 139.999893 0.000060 -0.000060 -4.051213 7.068476 0.985963 139.999893
[Rope2_Seg09]
6 121.338966 0.000089 -0.000060 33.793236 -1.359788 -0.847141 121.338966
7 121.338966 0.000089 -0.000060 33.793236 -1.359788 -0.847141 121.338966
[R_mid_hand01]
6 104.680779 11.144459 -10.335981 -22.984863 42.734234 60.718655 105.778534
7 104.680779 11.144459 -10.335981 -25.192726 41.648338 57.439434 105.778534
[R_mid_hand02]
6 104.070427 2.443552 8.231699 58.419525 -61.729706 28.969120 104.424065
7 104.070427 2.443552 8.231699 60.800945 -59.436069 26.232430 104.424065
[R_mid_hand03]
6 106.028137 -11.221827 -5.996406 -175.069138 15.041784 -68.893349 106.788818
7 106.028137 -11.221827 -5.996406 -174.361145 14.799507 -66.152634 106.788818
[spine02]
6 129.756927 0.001550 0.000119 0.427312 -4.037607 -13.892398 129.756927
7 129.756927 0.001550 0.000119 0.440082 -4.036127 -14.068972 129.756927
[spine03]
6 78.614021 0.081644 -4.898986 1.937378 3.813062 17.084410 78.766556
7 78.614006 0.081646 -4.898984 1.944307 3.810704 17.194693 78.766541
[pelvis]
6 169.435242 0.051022 0.000000 -0.059822 -0.180440 13.679385 169.435257
7 169.435242 0.051022 0.000000 -0.059548 -0.180530 13.505057 169.435257
[null_rope03_connect]
6 -1.257226 -2.466202 137.391083 -36.274300 -74.238861 85.758217 137.418976
7 -1.257226 -2.466202 137.391083 -32.709190 -63.364231 79.138107 137.418976
[null_rope04_connect]
6 -1.259640 -2.480268 -137.844437 -36.274300 -74.238861 85.758217 137.872513
7 -1.259640 -2.480268 -137.844437 -32.709190 -63.364231 79.138107 137.872513
[Rope3_Seg01]
6 -0.000038 0.000000 -0.000009 8.765224 15.625422 -105.078888 0.000039
7 -0.000037 0.000000 -0.000011 9.573293 12.869297 -105.509743 0.000039
[Rope3_Seg02]
6 139.999924 -0.000119 0.000060 -0.800934 -16.489159 39.913063 139.999924
7 139.999924 -0.000119 0.000060 -1.768322 -24.853552 43.963959 139.999924
[Rope3_Seg03]
6 139.999924 -0.000119 0.000119 -22.481396 -17.306862 48.595860 139.999924
7 139.999924 -0.000119 0.000119 -16.642731 -18.295527 42.745541 139.999924
[Rope3_Seg04]
6 139.999924 0.000119 0.000000 -10.046200 -8.171788 13.289138 139.999924
7 139.999924 0.000119 0.000000 -6.856371 -7.641016 11.390930 139.999924
[Rope3_Seg05]
6 139.999924 -0.000238 0.000060 -18.514687 -11.725140 19.031715 139.999924
7 139.999924 -0.000238 0.000060 -11.329389 -11.172548 14.320289 139.999924
[Rope3_Seg06]
6 139.999893 -0.000119 -0.000060 -25.719181 -19.484732 18.655369 139.999893
7 139.999893 -0.000119 -0.000060 -16.303328 -16.825096 15.687780 139.999893
[Rope3_Seg07]
6 139.999771 0.000060 -0.000119 -8.362095 -11.297272 3.705673 139.999771
7 139.999771 0.000060 -0.000119 -6.638041 -9.939425 5.225235 139.999771
[Rope3_Seg08]
6 139.999985 -0.000060 0.000000 -3.199503 -6.037675 1.057300 139.999985
7 139.999985 -0.000060 0.000000 -2.838907 -5.592351 2.181130 139.999985
[Rope3_Seg09]
6 90.185997 -0.000179 -0.000060 89.793228 -1.359877 -0.847183 90.185997
7 90.185997 -0.000179 -0.000060 89.793228 -1.359877 -0.847183 90.185997
[R_rear_hand01]
6 103.366196 -6.073594 -10.757982 -173.599045 23.870514 -63.902164 104.101845
7 103.366196 -6.073594 -10.757982 -172.199188 23.472191 -60.427750 104.101845
[R_rear_hand02]
6 100.509819 12.039542 -7.992327 -19.192892 34.332623 61.336498 101.543350
7 100.509819 12.039542 -7.992327 -21.205954 33.223911 57.720810 101.543350
[R_rear_hand03]
6 101.539970 5.215704 5.435467 77.403587 -62.983585 15.125125 101.819031
7 101.539970 5.215704 5.435467 78.624985 -59.850563 13.735100 101.819031
[Rope4_Seg01]
6 0.000008 -0.000109 -0.000153 -109.204910 19.974524 -136.178436 0.000188
7 0.000008 -0.000124 -0.000153 -113.485748 23.732172 -140.148483 0.000197
[Rope4_Seg02]
6 139.999985 0.000060 0.000119 -2.602597 4.521097 5.713662 139.999985
7 139.999985 0.000060 0.000119 -4.470400 5.328400 7.558697 139.999985
[Rope4_Seg03]
6 139.999924 0.000000 -0.000238 -4.633255 5.124740 7.186761 139.999924
7 139.999924 0.000000 -0.000238 -8.779745 5.609128 9.590289 139.999924
[Rope4_Seg04]
6 139.999985 0.000000 0.000119 -6.570978 3.782863 6.891683 139.999985
7 139.999985 0.000000 0.000119 -14.174498 3.258205 9.715740 139.999985
[Rope4_Seg05]
6 139.999802 -0.000060 -0.000119 -12.800900 4.047082 9.289712 139.999802
7 139.999802 -0.000060 -0.000119 -19.077658 0.805196 9.491735 139.999802
[Rope4_Seg06]
6 139.999924 0.000000 0.000060 -41.616272 4.252263 18.230463 139.999924
7 139.999924 0.000000 0.000060 -36.943478 -2.141181 15.643265 139.999924
[Rope4_Seg07]
6 139.999802 0.000000 0.000000 -38.263390 -8.366480 15.690872 139.999802
7 139.999802 0.000000 0.000000 -32.622726 -13.954131 15.672394 139.999802
[Rope4_Seg08]
6 139.999924 0.000000 0.000119 -12.028298 -8.327272 3.717875 139.999924
7 139.999924 0.000000 0.000119 -9.674370 -11.044863 3.163287 139.999924
[Rope4_Seg09]
6 90.185791 0.000060 0.000060 -135.617828 2.228885 0.850567 90.185791
7 90.185791 0.000060 0.000060 -135.617828 2.228885 0.850567 90.185791
[L_rear_hand01]
6 101.696655 -8.392275 -7.654577 -28.953402 -26.963970 137.645660 102.329041
7 101.696655 -8.392275 -7.654577 -30.967802 -24.555588 142.276382 102.329041
[L_rear_hand02]
6 102.726799 -1.568258 5.773216 81.888351 45.378387 170.342453 102.900848
7 102.726799 -1.568258 5.773216 82.497200 40.606583 171.238342 102.900848
[L_rear_hand03]
6 104.552910 9.721220 -10.420293 -166.314163 -20.719036 -135.138702 105.519653
7 104.552910 9.721220 -10.420293 -164.603775 -19.511108 -140.104065 105.519653
